<?xml version="1.0" encoding="us-ascii" standalone="no"?><svg xmlns="http://www.w3.org/2000/svg" xmlns:xlink="http://www.w3.org/1999/xlink" contentStyleType="text/css" height="406px" preserveAspectRatio="none" style="width:894px;height:406px;background:#FFFFFF;" version="1.1" viewBox="0 0 894 406" width="894.8px" zoomAndPan="magnify"><defs/><g><text fill="#000000" font-family="sans-serif" font-size="5.6" font-weight="bold" lengthAdjust="spacing" textLength="157.2" x="368.4" y="11.0695">Sequence Diagram - Dependency Risk Analysis (Level 3)</text><rect fill="#FFFFFF" height="301.8438" style="stroke:#181818;stroke-width:0.4000000000000001;" width="4" x="123" y="59.7781"/><rect fill="#FFFFFF" height="262.4156" style="stroke:#181818;stroke-width:0.4000000000000001;" width="4" x="199" y="87.7969"/><rect fill="#FFFFFF" height="11.4094" style="stroke:#181818;stroke-width:0.4000000000000001;" width="4" x="260.2" y="122.025"/><rect fill="#FFFFFF" height="11.4094" style="stroke:#181818;stroke-width:0.4000000000000001;" width="4" x="317.2" y="258.9375"/><rect fill="#FFFFFF" height="11.4094" style="stroke:#181818;stroke-width:0.4000000000000001;" width="4" x="385.8" y="167.6625"/><rect fill="#FFFFFF" height="11.4094" style="stroke:#181818;stroke-width:0.4000000000000001;" width="4" x="445.8" y="213.3"/><rect fill="#FFFFFF" height="11.4094" style="stroke:#181818;stroke-width:0.4000000000000001;" width="4" x="493.6" y="144.8438"/><rect fill="#FFFFFF" height="11.4094" style="stroke:#181818;stroke-width:0.4000000000000001;" width="4" x="549.4" y="281.7563"/><rect fill="#FFFFFF" height="11.4094" style="stroke:#181818;stroke-width:0.4000000000000001;" width="4" x="618.2" y="190.4813"/><rect fill="#FFFFFF" height="11.4094" style="stroke:#181818;stroke-width:0.4000000000000001;" width="4" x="678.4" y="236.1188"/><rect fill="#FFFFFF" height="11.4094" style="stroke:#181818;stroke-width:0.4000000000000001;" width="4" x="727.4" y="99.2063"/><rect fill="#FFFFFF" height="11.4094" style="stroke:#181818;stroke-width:0.4000000000000001;" width="4" x="824" y="304.575"/><rect fill="#FFFFFF" height="11.4094" style="stroke:#181818;stroke-width:0.4000000000000001;" width="4" x="871.4" y="327.3938"/><line style="stroke:#181818;stroke-width:0.20000000000000004;stroke-dasharray:5.0,5.0;" x1="8.8" x2="8.8" y1="47.5688" y2="368.8219"/><line style="stroke:#181818;stroke-width:0.20000000000000004;stroke-dasharray:5.0,5.0;" x1="125" x2="125" y1="47.5688" y2="368.8219"/><line style="stroke:#181818;stroke-width:0.20000000000000004;stroke-dasharray:5.0,5.0;" x1="201" x2="201" y1="47.5688" y2="368.8219"/><line style="stroke:#181818;stroke-width:0.20000000000000004;stroke-dasharray:5.0,5.0;" x1="262" x2="262" y1="47.5688" y2="368.8219"/><line style="stroke:#181818;stroke-width:0.20000000000000004;stroke-dasharray:5.0,5.0;" x1="319.2" x2="319.2" y1="47.5688" y2="368.8219"/><line style="stroke:#181818;stroke-width:0.20000000000000004;stroke-dasharray:5.0,5.0;" x1="387.6" x2="387.6" y1="47.5688" y2="368.8219"/><line style="stroke:#181818;stroke-width:0.20000000000000004;stroke-dasharray:5.0,5.0;" x1="447.6" x2="447.6" y1="47.5688" y2="368.8219"/><line style="stroke:#181818;stroke-width:0.20000000000000004;stroke-dasharray:5.0,5.0;" x1="495.6" x2="495.6" y1="47.5688" y2="368.8219"/><line style="stroke:#181818;stroke-width:0.20000000000000004;stroke-dasharray:5.0,5.0;" x1="551.2" x2="551.2" y1="47.5688" y2="368.8219"/><line style="stroke:#181818;stroke-width:0.20000000000000004;stroke-dasharray:5.0,5.0;" x1="620" x2="620" y1="47.5688" y2="368.8219"/><line style="stroke:#181818;stroke-width:0.20000000000000004;stroke-dasharray:5.0,5.0;" x1="680.4" x2="680.4" y1="47.5688" y2="368.8219"/><line style="stroke:#181818;stroke-width:0.20000000000000004;stroke-dasharray:5.0,5.0;" x1="729.2" x2="729.2" y1="47.5688" y2="368.8219"/><line style="stroke:#181818;stroke-width:0.20000000000000004;stroke-dasharray:5.0,5.0;" x1="778.8" x2="778.8" y1="47.5688" y2="368.8219"/><line style="stroke:#181818;stroke-width:0.20000000000000004;stroke-dasharray:5.0,5.0;" x1="826" x2="826" y1="47.5688" y2="368.8219"/><line style="stroke:#181818;stroke-width:0.20000000000000004;stroke-dasharray:5.0,5.0;" x1="873.2" x2="873.2" y1="47.5688" y2="368.8219"/><text fill="#000000" font-family="sans-serif" font-size="5.6" lengthAdjust="spacing" textLength="11.6" x="2" y="46.382">User</text><ellipse cx="9" cy="20.7125" fill="#E3E3E3" rx="3.2" ry="3.2" style="stroke:#181818;stroke-width:0.20000000000000004;"/><path d="M9,23.9125 L9,34.7125 M3.8,27.1125 L14.2,27.1125 M9,34.7125 L3.8,40.7125 M9,34.7125 L14.2,40.7125 " fill="none" style="stroke:#181818;stroke-width:0.20000000000000004;"/><text fill="#000000" font-family="sans-serif" font-size="5.6" lengthAdjust="spacing" textLength="11.6" x="2" y="373.4914">User</text><ellipse cx="9" cy="378.0781" fill="#E3E3E3" rx="3.2" ry="3.2" style="stroke:#181818;stroke-width:0.20000000000000004;"/><path d="M9,381.2781 L9,392.0781 M3.8,384.4781 L14.2,384.4781 M9,392.0781 L3.8,398.0781 M9,392.0781 L14.2,398.0781 " fill="none" style="stroke:#181818;stroke-width:0.20000000000000004;"/><rect fill="#E3E3E3" height="18.1125" rx="1" ry="1" style="stroke:#181818;stroke-width:0.20000000000000004;" width="20.8" x="114.6" y="29.0563"/><text fill="#000000" font-family="sans-serif" font-size="5.6" font-style="italic" lengthAdjust="spacing" textLength="15.2" x="117.4" y="36.9258">&#171;CLI&#187;</text><text fill="#000000" font-family="sans-serif" font-size="5.6" lengthAdjust="spacing" textLength="8.4" x="120.8" y="43.182">CLI</text><rect fill="#E3E3E3" height="18.1125" rx="1" ry="1" style="stroke:#181818;stroke-width:0.20000000000000004;" width="20.8" x="114.6" y="368.4219"/><text fill="#000000" font-family="sans-serif" font-size="5.6" font-style="italic" lengthAdjust="spacing" textLength="15.2" x="117.4" y="376.2914">&#171;CLI&#187;</text><text fill="#000000" font-family="sans-serif" font-size="5.6" lengthAdjust="spacing" textLength="8.4" x="120.8" y="382.5477">CLI</text><rect fill="#E3E3E3" height="18.1125" rx="1" ry="1" style="stroke:#181818;stroke-width:0.20000000000000004;" width="51.2" x="175.4" y="29.0563"/><text fill="#000000" font-family="sans-serif" font-size="5.6" font-style="italic" lengthAdjust="spacing" textLength="34" x="184" y="36.9258">&#171;Controllers&#187;</text><text fill="#000000" font-family="sans-serif" font-size="5.6" lengthAdjust="spacing" textLength="45.6" x="178.2" y="43.182">AnalysisController</text><rect fill="#E3E3E3" height="18.1125" rx="1" ry="1" style="stroke:#181818;stroke-width:0.20000000000000004;" width="51.2" x="175.4" y="368.4219"/><text fill="#000000" font-family="sans-serif" font-size="5.6" font-style="italic" lengthAdjust="spacing" textLength="34" x="184" y="376.2914">&#171;Controllers&#187;</text><text fill="#000000" font-family="sans-serif" font-size="5.6" lengthAdjust="spacing" textLength="45.6" x="178.2" y="382.5477">AnalysisController</text><rect fill="#E3E3E3" height="18.1125" rx="1" ry="1" style="stroke:#181818;stroke-width:0.20000000000000004;" width="50.8" x="236.8" y="29.0563"/><text fill="#000000" font-family="sans-serif" font-size="5.6" font-style="italic" lengthAdjust="spacing" textLength="29.2" x="247.6" y="36.9258">&#171;Adapters&#187;</text><text fill="#000000" font-family="sans-serif" font-size="5.6" lengthAdjust="spacing" textLength="45.2" x="239.6" y="43.182">DepcheckAdapter</text><rect fill="#E3E3E3" height="18.1125" rx="1" ry="1" style="stroke:#181818;stroke-width:0.20000000000000004;" width="50.8" x="236.8" y="368.4219"/><text fill="#000000" font-family="sans-serif" font-size="5.6" font-style="italic" lengthAdjust="spacing" textLength="29.2" x="247.6" y="376.2914">&#171;Adapters&#187;</text><text fill="#000000" font-family="sans-serif" font-size="5.6" lengthAdjust="spacing" textLength="45.2" x="239.6" y="382.5477">DepcheckAdapter</text><rect fill="#E3E3E3" height="18.1125" rx="1" ry="1" style="stroke:#181818;stroke-width:0.20000000000000004;" width="55.2" x="291.6" y="29.0563"/><text fill="#000000" font-family="sans-serif" font-size="5.6" font-style="italic" lengthAdjust="spacing" textLength="29.2" x="304.6" y="36.9258">&#171;Adapters&#187;</text><text fill="#000000" font-family="sans-serif" font-size="5.6" lengthAdjust="spacing" textLength="49.6" x="294.4" y="43.182">DirtyWatersAdapter</text><rect fill="#E3E3E3" height="18.1125" rx="1" ry="1" style="stroke:#181818;stroke-width:0.20000000000000004;" width="55.2" x="291.6" y="368.4219"/><text fill="#000000" font-family="sans-serif" font-size="5.6" font-style="italic" lengthAdjust="spacing" textLength="29.2" x="304.6" y="376.2914">&#171;Adapters&#187;</text><text fill="#000000" font-family="sans-serif" font-size="5.6" lengthAdjust="spacing" textLength="49.6" x="294.4" y="382.5477">DirtyWatersAdapter</text><rect fill="#E3E3E3" height="18.1125" rx="1" ry="1" style="stroke:#181818;stroke-width:0.20000000000000004;" width="74" x="350.8" y="29.0563"/><text fill="#000000" font-family="sans-serif" font-size="5.6" font-style="italic" lengthAdjust="spacing" textLength="29.2" x="373.2" y="36.9258">&#171;Adapters&#187;</text><text fill="#000000" font-family="sans-serif" font-size="5.6" lengthAdjust="spacing" textLength="68.4" x="353.6" y="43.182">DependencySnifferAdapter</text><rect fill="#E3E3E3" height="18.1125" rx="1" ry="1" style="stroke:#181818;stroke-width:0.20000000000000004;" width="74" x="350.8" y="368.4219"/><text fill="#000000" font-family="sans-serif" font-size="5.6" font-style="italic" lengthAdjust="spacing" textLength="29.2" x="373.2" y="376.2914">&#171;Adapters&#187;</text><text fill="#000000" font-family="sans-serif" font-size="5.6" lengthAdjust="spacing" textLength="68.4" x="353.6" y="382.5477">DependencySnifferAdapter</text><rect fill="#E3E3E3" height="18.1125" rx="1" ry="1" style="stroke:#181818;stroke-width:0.20000000000000004;" width="38" x="428.8" y="29.0563"/><text fill="#000000" font-family="sans-serif" font-size="5.6" font-style="italic" lengthAdjust="spacing" textLength="29.2" x="433.2" y="36.9258">&#171;Adapters&#187;</text><text fill="#000000" font-family="sans-serif" font-size="5.6" lengthAdjust="spacing" textLength="32.4" x="431.6" y="43.182">SnykAdapter</text><rect fill="#E3E3E3" height="18.1125" rx="1" ry="1" style="stroke:#181818;stroke-width:0.20000000000000004;" width="38" x="428.8" y="368.4219"/><text fill="#000000" font-family="sans-serif" font-size="5.6" font-style="italic" lengthAdjust="spacing" textLength="29.2" x="433.2" y="376.2914">&#171;Adapters&#187;</text><text fill="#000000" font-family="sans-serif" font-size="5.6" lengthAdjust="spacing" textLength="32.4" x="431.6" y="382.5477">SnykAdapter</text><rect fill="#E3E3E3" height="18.1125" rx="1" ry="1" style="stroke:#181818;stroke-width:0.20000000000000004;" width="49.6" x="470.8" y="29.0563"/><text fill="#000000" font-family="sans-serif" font-size="5.6" font-style="italic" lengthAdjust="spacing" textLength="27.6" x="481.8" y="36.9258">&#171;Services&#187;</text><text fill="#000000" font-family="sans-serif" font-size="5.6" lengthAdjust="spacing" textLength="44" x="473.6" y="43.182">DepcheckService</text><rect fill="#E3E3E3" height="18.1125" rx="1" ry="1" style="stroke:#181818;stroke-width:0.20000000000000004;" width="49.6" x="470.8" y="368.4219"/><text fill="#000000" font-family="sans-serif" font-size="5.6" font-style="italic" lengthAdjust="spacing" textLength="27.6" x="481.8" y="376.2914">&#171;Services&#187;</text><text fill="#000000" font-family="sans-serif" font-size="5.6" lengthAdjust="spacing" textLength="44" x="473.6" y="382.5477">DepcheckService</text><rect fill="#E3E3E3" height="18.1125" rx="1" ry="1" style="stroke:#181818;stroke-width:0.20000000000000004;" width="54" x="524.4" y="29.0563"/><text fill="#000000" font-family="sans-serif" font-size="5.6" font-style="italic" lengthAdjust="spacing" textLength="27.6" x="537.6" y="36.9258">&#171;Services&#187;</text><text fill="#000000" font-family="sans-serif" font-size="5.6" lengthAdjust="spacing" textLength="48.4" x="527.2" y="43.182">DirtyWatersService</text><rect fill="#E3E3E3" height="18.1125" rx="1" ry="1" style="stroke:#181818;stroke-width:0.20000000000000004;" width="54" x="524.4" y="368.4219"/><text fill="#000000" font-family="sans-serif" font-size="5.6" font-style="italic" lengthAdjust="spacing" textLength="27.6" x="537.6" y="376.2914">&#171;Services&#187;</text><text fill="#000000" font-family="sans-serif" font-size="5.6" lengthAdjust="spacing" textLength="48.4" x="527.2" y="382.5477">DirtyWatersService</text><rect fill="#E3E3E3" height="18.1125" rx="1" ry="1" style="stroke:#181818;stroke-width:0.20000000000000004;" width="75.6" x="582.4" y="29.0563"/><text fill="#000000" font-family="sans-serif" font-size="5.6" font-style="italic" lengthAdjust="spacing" textLength="27.6" x="606.4" y="36.9258">&#171;Services&#187;</text><text fill="#000000" font-family="sans-serif" font-size="5.6" lengthAdjust="spacing" textLength="70" x="585.2" y="43.182">DependencySniffersService</text><rect fill="#E3E3E3" height="18.1125" rx="1" ry="1" style="stroke:#181818;stroke-width:0.20000000000000004;" width="75.6" x="582.4" y="368.4219"/><text fill="#000000" font-family="sans-serif" font-size="5.6" font-style="italic" lengthAdjust="spacing" textLength="27.6" x="606.4" y="376.2914">&#171;Services&#187;</text><text fill="#000000" font-family="sans-serif" font-size="5.6" lengthAdjust="spacing" textLength="70" x="585.2" y="382.5477">DependencySniffersService</text><rect fill="#E3E3E3" height="18.1125" rx="1" ry="1" style="stroke:#181818;stroke-width:0.20000000000000004;" width="36.8" x="662" y="29.0563"/><text fill="#000000" font-family="sans-serif" font-size="5.6" font-style="italic" lengthAdjust="spacing" textLength="27.6" x="666.6" y="36.9258">&#171;Services&#187;</text><text fill="#000000" font-family="sans-serif" font-size="5.6" lengthAdjust="spacing" textLength="31.2" x="664.8" y="43.182">SnykService</text><rect fill="#E3E3E3" height="18.1125" rx="1" ry="1" style="stroke:#181818;stroke-width:0.20000000000000004;" width="36.8" x="662" y="368.4219"/><text fill="#000000" font-family="sans-serif" font-size="5.6" font-style="italic" lengthAdjust="spacing" textLength="27.6" x="666.6" y="376.2914">&#171;Services&#187;</text><text fill="#000000" font-family="sans-serif" font-size="5.6" lengthAdjust="spacing" textLength="31.2" x="664.8" y="382.5477">SnykService</text><text fill="#000000" font-family="sans-serif" font-size="5.6" font-style="italic" lengthAdjust="spacing" textLength="31.6" x="712.4" y="40.1258">&#171;repository&#187;</text><text fill="#000000" font-family="sans-serif" font-size="5.6" lengthAdjust="spacing" textLength="50.8" x="702.8" y="46.382">DependencyService</text><path d="M722.2,20.6563 C722.2,16.6563 729.4,16.6563 729.4,16.6563 C729.4,16.6563 736.6,16.6563 736.6,20.6563 L736.6,31.0563 C736.6,35.0563 729.4,35.0563 729.4,35.0563 C729.4,35.0563 722.2,35.0563 722.2,31.0563 L722.2,20.6563 " fill="#E3E3E3" style="stroke:#181818;stroke-width:0.6000000000000001;"/><path d="M722.2,20.6563 C722.2,24.6563 729.4,24.6563 729.4,24.6563 C729.4,24.6563 736.6,24.6563 736.6,20.6563 " fill="none" style="stroke:#181818;stroke-width:0.6000000000000001;"/><text fill="#000000" font-family="sans-serif" font-size="5.6" font-style="italic" lengthAdjust="spacing" textLength="31.6" x="712.4" y="373.4914">&#171;repository&#187;</text><text fill="#000000" font-family="sans-serif" font-size="5.6" lengthAdjust="spacing" textLength="50.8" x="702.8" y="379.7477">DependencyService</text><path d="M722.2,384.9344 C722.2,380.9344 729.4,380.9344 729.4,380.9344 C729.4,380.9344 736.6,380.9344 736.6,384.9344 L736.6,395.3344 C736.6,399.3344 729.4,399.3344 729.4,399.3344 C729.4,399.3344 722.2,399.3344 722.2,395.3344 L722.2,384.9344 " fill="#E3E3E3" style="stroke:#181818;stroke-width:0.6000000000000001;"/><path d="M722.2,384.9344 C722.2,388.9344 729.4,388.9344 729.4,388.9344 C729.4,388.9344 736.6,388.9344 736.6,384.9344 " fill="none" style="stroke:#181818;stroke-width:0.6000000000000001;"/><rect fill="#E3E3E3" height="18.1125" rx="1" ry="1" style="stroke:#181818;stroke-width:0.20000000000000004;" width="37.6" x="760" y="29.0563"/><text fill="#000000" font-family="sans-serif" font-size="5.6" font-style="italic" lengthAdjust="spacing" textLength="24.8" x="766.4" y="36.9258">&#171;domain&#187;</text><text fill="#000000" font-family="sans-serif" font-size="5.6" lengthAdjust="spacing" textLength="32" x="762.8" y="43.182">Dependency</text><rect fill="#E3E3E3" height="18.1125" rx="1" ry="1" style="stroke:#181818;stroke-width:0.20000000000000004;" width="37.6" x="760" y="368.4219"/><text fill="#000000" font-family="sans-serif" font-size="5.6" font-style="italic" lengthAdjust="spacing" textLength="24.8" x="766.4" y="376.2914">&#171;domain&#187;</text><text fill="#000000" font-family="sans-serif" font-size="5.6" lengthAdjust="spacing" textLength="32" x="762.8" y="382.5477">Dependency</text><rect fill="#E3E3E3" height="18.1125" rx="1" ry="1" style="stroke:#181818;stroke-width:0.20000000000000004;" width="48.8" x="801.6" y="29.0563"/><text fill="#000000" font-family="sans-serif" font-size="5.6" font-style="italic" lengthAdjust="spacing" textLength="23.6" x="814.2" y="36.9258">&#171;Report&#187;</text><text fill="#000000" font-family="sans-serif" font-size="5.6" lengthAdjust="spacing" textLength="43.2" x="804.4" y="43.182">ReportGenerator</text><rect fill="#E3E3E3" height="18.1125" rx="1" ry="1" style="stroke:#181818;stroke-width:0.20000000000000004;" width="48.8" x="801.6" y="368.4219"/><text fill="#000000" font-family="sans-serif" font-size="5.6" font-style="italic" lengthAdjust="spacing" textLength="23.6" x="814.2" y="376.2914">&#171;Report&#187;</text><text fill="#000000" font-family="sans-serif" font-size="5.6" lengthAdjust="spacing" textLength="43.2" x="804.4" y="382.5477">ReportGenerator</text><rect fill="#E3E3E3" height="18.1125" rx="1" ry="1" style="stroke:#181818;stroke-width:0.20000000000000004;" width="38" x="854.4" y="29.0563"/><text fill="#000000" font-family="sans-serif" font-size="5.6" font-style="italic" lengthAdjust="spacing" textLength="23.6" x="861.6" y="36.9258">&#171;Report&#187;</text><text fill="#000000" font-family="sans-serif" font-size="5.6" lengthAdjust="spacing" textLength="32.4" x="857.2" y="43.182">ReportWriter</text><rect fill="#E3E3E3" height="18.1125" rx="1" ry="1" style="stroke:#181818;stroke-width:0.20000000000000004;" width="38" x="854.4" y="368.4219"/><text fill="#000000" font-family="sans-serif" font-size="5.6" font-style="italic" lengthAdjust="spacing" textLength="23.6" x="861.6" y="376.2914">&#171;Report&#187;</text><text fill="#000000" font-family="sans-serif" font-size="5.6" lengthAdjust="spacing" textLength="32.4" x="857.2" y="382.5477">ReportWriter</text><rect fill="#FFFFFF" height="301.8438" style="stroke:#181818;stroke-width:0.4000000000000001;" width="4" x="123" y="59.7781"/><rect fill="#FFFFFF" height="262.4156" style="stroke:#181818;stroke-width:0.4000000000000001;" width="4" x="199" y="87.7969"/><rect fill="#FFFFFF" height="11.4094" style="stroke:#181818;stroke-width:0.4000000000000001;" width="4" x="260.2" y="122.025"/><rect fill="#FFFFFF" height="11.4094" style="stroke:#181818;stroke-width:0.4000000000000001;" width="4" x="317.2" y="258.9375"/><rect fill="#FFFFFF" height="11.4094" style="stroke:#181818;stroke-width:0.4000000000000001;" width="4" x="385.8" y="167.6625"/><rect fill="#FFFFFF" height="11.4094" style="stroke:#181818;stroke-width:0.4000000000000001;" width="4" x="445.8" y="213.3"/><rect fill="#FFFFFF" height="11.4094" style="stroke:#181818;stroke-width:0.4000000000000001;" width="4" x="493.6" y="144.8438"/><rect fill="#FFFFFF" height="11.4094" style="stroke:#181818;stroke-width:0.4000000000000001;" width="4" x="549.4" y="281.7563"/><rect fill="#FFFFFF" height="11.4094" style="stroke:#181818;stroke-width:0.4000000000000001;" width="4" x="618.2" y="190.4813"/><rect fill="#FFFFFF" height="11.4094" style="stroke:#181818;stroke-width:0.4000000000000001;" width="4" x="678.4" y="236.1188"/><rect fill="#FFFFFF" height="11.4094" style="stroke:#181818;stroke-width:0.4000000000000001;" width="4" x="727.4" y="99.2063"/><rect fill="#FFFFFF" height="11.4094" style="stroke:#181818;stroke-width:0.4000000000000001;" width="4" x="824" y="304.575"/><rect fill="#FFFFFF" height="11.4094" style="stroke:#181818;stroke-width:0.4000000000000001;" width="4" x="871.4" y="327.3938"/><polygon fill="#181818" points="118.2,58.1781,122.2,59.7781,118.2,61.3781,119.8,59.7781" style="stroke:#181818;stroke-width:0.4000000000000001;"/><line style="stroke:#181818;stroke-width:0.4000000000000001;" x1="9" x2="120.6" y1="59.7781" y2="59.7781"/><text fill="#000000" font-family="sans-serif" font-size="5.2" lengthAdjust="spacing" textLength="106.4" x="11.8" y="57.8762">executeCommand("dependencyTool analyze")</text><line style="stroke:#181818;stroke-width:0.4000000000000001;" x1="127" x2="143.8" y1="71.1875" y2="71.1875"/><line style="stroke:#181818;stroke-width:0.4000000000000001;" x1="143.8" x2="143.8" y1="71.1875" y2="76.3875"/><line style="stroke:#181818;stroke-width:0.4000000000000001;" x1="127.4" x2="143.8" y1="76.3875" y2="76.3875"/><polygon fill="#181818" points="131.4,74.7875,127.4,76.3875,131.4,77.9875,129.8,76.3875" style="stroke:#181818;stroke-width:0.4000000000000001;"/><text fill="#000000" font-family="sans-serif" font-size="5.2" lengthAdjust="spacing" textLength="37.6" x="129.8" y="69.2855">buildCommand()</text><polygon fill="#181818" points="194.2,86.1969,198.2,87.7969,194.2,89.3969,195.8,87.7969" style="stroke:#181818;stroke-width:0.4000000000000001;"/><line style="stroke:#181818;stroke-width:0.4000000000000001;" x1="127" x2="196.6" y1="87.7969" y2="87.7969"/><text fill="#000000" font-family="sans-serif" font-size="5.2" lengthAdjust="spacing" textLength="64.4" x="129.8" y="85.8949">executeAnalysis(command)</text><polygon fill="#181818" points="722.6,97.6063,726.6,99.2063,722.6,100.8063,724.2,99.2063" style="stroke:#181818;stroke-width:0.4000000000000001;"/><line style="stroke:#181818;stroke-width:0.4000000000000001;" x1="203" x2="725" y1="99.2063" y2="99.2063"/><text fill="#000000" font-family="sans-serif" font-size="5.2" lengthAdjust="spacing" textLength="95.2" x="205.8" y="97.3043">extract_from_package_json(project_path)</text><polygon fill="#181818" points="207.4,109.0156,203.4,110.6156,207.4,112.2156,205.8,110.6156" style="stroke:#181818;stroke-width:0.4000000000000001;"/><line style="stroke:#181818;stroke-width:0.4000000000000001;stroke-dasharray:2.0,2.0;" x1="205" x2="729" y1="110.6156" y2="110.6156"/><text fill="#000000" font-family="sans-serif" font-size="5.2" lengthAdjust="spacing" textLength="32" x="209.8" y="108.7137">dependencies</text><polygon fill="#181818" points="255.4,120.425,259.4,122.025,255.4,123.625,257,122.025" style="stroke:#181818;stroke-width:0.4000000000000001;"/><line style="stroke:#181818;stroke-width:0.4000000000000001;" x1="203" x2="257.8" y1="122.025" y2="122.025"/><text fill="#000000" font-family="sans-serif" font-size="5.2" lengthAdjust="spacing" textLength="49.6" x="205.8" y="120.123">analyze(project_path)</text><polygon fill="#181818" points="207.4,131.8344,203.4,133.4344,207.4,135.0344,205.8,133.4344" style="stroke:#181818;stroke-width:0.4000000000000001;"/><line style="stroke:#181818;stroke-width:0.4000000000000001;stroke-dasharray:2.0,2.0;" x1="205" x2="261.8" y1="133.4344" y2="133.4344"/><text fill="#000000" font-family="sans-serif" font-size="5.2" lengthAdjust="spacing" textLength="39.6" x="209.8" y="131.5324">depcheck_output</text><polygon fill="#181818" points="488.8,143.2438,492.8,144.8438,488.8,146.4438,490.4,144.8438" style="stroke:#181818;stroke-width:0.4000000000000001;"/><line style="stroke:#181818;stroke-width:0.4000000000000001;" x1="203" x2="491.2" y1="144.8438" y2="144.8438"/><text fill="#000000" font-family="sans-serif" font-size="5.2" lengthAdjust="spacing" textLength="106.4" x="205.8" y="142.9418">map_results(depcheck_output, dependencies)</text><polygon fill="#181818" points="207.4,154.6531,203.4,156.2531,207.4,157.8531,205.8,156.2531" style="stroke:#181818;stroke-width:0.4000000000000001;"/><line style="stroke:#181818;stroke-width:0.4000000000000001;stroke-dasharray:2.0,2.0;" x1="205" x2="495.2" y1="156.2531" y2="156.2531"/><text fill="#000000" font-family="sans-serif" font-size="5.2" lengthAdjust="spacing" textLength="40.8" x="209.8" y="154.3512">depcheck_results</text><polygon fill="#181818" points="381,166.0625,385,167.6625,381,169.2625,382.6,167.6625" style="stroke:#181818;stroke-width:0.4000000000000001;"/><line style="stroke:#181818;stroke-width:0.4000000000000001;" x1="203" x2="383.4" y1="167.6625" y2="167.6625"/><text fill="#000000" font-family="sans-serif" font-size="5.2" lengthAdjust="spacing" textLength="49.6" x="205.8" y="165.7605">analyze(project_path)</text><polygon fill="#181818" points="207.4,177.4719,203.4,179.0719,207.4,180.6719,205.8,179.0719" style="stroke:#181818;stroke-width:0.4000000000000001;"/><line style="stroke:#181818;stroke-width:0.4000000000000001;stroke-dasharray:2.0,2.0;" x1="205" x2="387.4" y1="179.0719" y2="179.0719"/><text fill="#000000" font-family="sans-serif" font-size="5.2" lengthAdjust="spacing" textLength="60" x="209.8" y="177.1699">dependencySnifferResults</text><polygon fill="#181818" points="613.4,188.8813,617.4,190.4813,613.4,192.0813,615,190.4813" style="stroke:#181818;stroke-width:0.4000000000000001;"/><line style="stroke:#181818;stroke-width:0.4000000000000001;" x1="203" x2="615.8" y1="190.4813" y2="190.4813"/><text fill="#000000" font-family="sans-serif" font-size="5.2" lengthAdjust="spacing" textLength="74" x="205.8" y="188.5793">analyze_constraints(sniffer_raw)</text><polygon fill="#181818" points="207.4,200.2906,203.4,201.8906,207.4,203.4906,205.8,201.8906" style="stroke:#181818;stroke-width:0.4000000000000001;"/><line style="stroke:#181818;stroke-width:0.4000000000000001;stroke-dasharray:2.0,2.0;" x1="205" x2="619.8" y1="201.8906" y2="201.8906"/><text fill="#000000" font-family="sans-serif" font-size="5.2" lengthAdjust="spacing" textLength="32" x="209.8" y="199.9887">sniffer_results</text><polygon fill="#181818" points="441,211.7,445,213.3,441,214.9,442.6,213.3" style="stroke:#181818;stroke-width:0.4000000000000001;"/><line style="stroke:#181818;stroke-width:0.4000000000000001;" x1="203" x2="443.4" y1="213.3" y2="213.3"/><text fill="#000000" font-family="sans-serif" font-size="5.2" lengthAdjust="spacing" textLength="49.6" x="205.8" y="211.398">analyze(project_path)</text><polygon fill="#181818" points="207.4,223.1094,203.4,224.7094,207.4,226.3094,205.8,224.7094" style="stroke:#181818;stroke-width:0.4000000000000001;"/><line style="stroke:#181818;stroke-width:0.4000000000000001;stroke-dasharray:2.0,2.0;" x1="205" x2="447.4" y1="224.7094" y2="224.7094"/><text fill="#000000" font-family="sans-serif" font-size="5.2" lengthAdjust="spacing" textLength="28.8" x="209.8" y="222.8074">snykResults</text><polygon fill="#181818" points="673.6,234.5188,677.6,236.1188,673.6,237.7188,675.2,236.1188" style="stroke:#181818;stroke-width:0.4000000000000001;"/><line style="stroke:#181818;stroke-width:0.4000000000000001;" x1="203" x2="676" y1="236.1188" y2="236.1188"/><text fill="#000000" font-family="sans-serif" font-size="5.2" lengthAdjust="spacing" textLength="43.2" x="205.8" y="234.2168">analyze(snyk_raw)</text><polygon fill="#181818" points="207.4,245.9281,203.4,247.5281,207.4,249.1281,205.8,247.5281" style="stroke:#181818;stroke-width:0.4000000000000001;"/><line style="stroke:#181818;stroke-width:0.4000000000000001;stroke-dasharray:2.0,2.0;" x1="205" x2="680" y1="247.5281" y2="247.5281"/><text fill="#000000" font-family="sans-serif" font-size="5.2" lengthAdjust="spacing" textLength="29.6" x="209.8" y="245.6262">snyk_results</text><polygon fill="#181818" points="312.4,257.3375,316.4,258.9375,312.4,260.5375,314,258.9375" style="stroke:#181818;stroke-width:0.4000000000000001;"/><line style="stroke:#181818;stroke-width:0.4000000000000001;" x1="203" x2="314.8" y1="258.9375" y2="258.9375"/><text fill="#000000" font-family="sans-serif" font-size="5.2" lengthAdjust="spacing" textLength="49.6" x="205.8" y="257.0355">analyze(project_repo)</text><polygon fill="#181818" points="207.4,268.7469,203.4,270.3469,207.4,271.9469,205.8,270.3469" style="stroke:#181818;stroke-width:0.4000000000000001;"/><line style="stroke:#181818;stroke-width:0.4000000000000001;stroke-dasharray:2.0,2.0;" x1="205" x2="318.8" y1="270.3469" y2="270.3469"/><text fill="#000000" font-family="sans-serif" font-size="5.2" lengthAdjust="spacing" textLength="44.4" x="209.8" y="268.4449">dirtyWatersResults</text><polygon fill="#181818" points="544.6,280.1563,548.6,281.7563,544.6,283.3563,546.2,281.7563" style="stroke:#181818;stroke-width:0.4000000000000001;"/><line style="stroke:#181818;stroke-width:0.4000000000000001;" x1="203" x2="547" y1="281.7563" y2="281.7563"/><text fill="#000000" font-family="sans-serif" font-size="5.2" lengthAdjust="spacing" textLength="65.2" x="205.8" y="279.8543">analyze(dirty_waters_report)</text><polygon fill="#181818" points="207.4,291.5656,203.4,293.1656,207.4,294.7656,205.8,293.1656" style="stroke:#181818;stroke-width:0.4000000000000001;"/><line style="stroke:#181818;stroke-width:0.4000000000000001;stroke-dasharray:2.0,2.0;" x1="205" x2="551" y1="293.1656" y2="293.1656"/><text fill="#000000" font-family="sans-serif" font-size="5.2" lengthAdjust="spacing" textLength="46.4" x="209.8" y="291.2637">dirty_waters_results</text><polygon fill="#181818" points="819.2,302.975,823.2,304.575,819.2,306.175,820.8,304.575" style="stroke:#181818;stroke-width:0.4000000000000001;"/><line style="stroke:#181818;stroke-width:0.4000000000000001;" x1="203" x2="821.6" y1="304.575" y2="304.575"/><text fill="#000000" font-family="sans-serif" font-size="5.2" lengthAdjust="spacing" textLength="272" x="205.8" y="302.673">generate_full_report(depcheck_results, sniffer_results, snyk_results, dirty_waters_results, dependencies, github_repo)</text><polygon fill="#181818" points="207.4,314.3844,203.4,315.9844,207.4,317.5844,205.8,315.9844" style="stroke:#181818;stroke-width:0.4000000000000001;"/><line style="stroke:#181818;stroke-width:0.4000000000000001;stroke-dasharray:2.0,2.0;" x1="205" x2="825.6" y1="315.9844" y2="315.9844"/><text fill="#000000" font-family="sans-serif" font-size="5.2" lengthAdjust="spacing" textLength="21.6" x="209.8" y="314.0824">fullReport</text><polygon fill="#181818" points="866.6,325.7938,870.6,327.3938,866.6,328.9938,868.2,327.3938" style="stroke:#181818;stroke-width:0.4000000000000001;"/><line style="stroke:#181818;stroke-width:0.4000000000000001;" x1="203" x2="869" y1="327.3938" y2="327.3938"/><text fill="#000000" font-family="sans-serif" font-size="5.2" lengthAdjust="spacing" textLength="56" x="205.8" y="325.4918">save(report, report_path)</text><polygon fill="#181818" points="207.4,337.2031,203.4,338.8031,207.4,340.4031,205.8,338.8031" style="stroke:#181818;stroke-width:0.4000000000000001;"/><line style="stroke:#181818;stroke-width:0.4000000000000001;stroke-dasharray:2.0,2.0;" x1="205" x2="873" y1="338.8031" y2="338.8031"/><text fill="#000000" font-family="sans-serif" font-size="5.2" lengthAdjust="spacing" textLength="13.2" x="209.8" y="336.9012">report</text><polygon fill="#181818" points="131.4,348.6125,127.4,350.2125,131.4,351.8125,129.8,350.2125" style="stroke:#181818;stroke-width:0.4000000000000001;"/><line style="stroke:#181818;stroke-width:0.4000000000000001;stroke-dasharray:2.0,2.0;" x1="129" x2="200.6" y1="350.2125" y2="350.2125"/><text fill="#000000" font-family="sans-serif" font-size="5.2" lengthAdjust="spacing" textLength="13.2" x="133.8" y="348.3105">report</text><polygon fill="#181818" points="13.4,360.0219,9.4,361.6219,13.4,363.2219,11.8,361.6219" style="stroke:#181818;stroke-width:0.4000000000000001;"/><line style="stroke:#181818;stroke-width:0.4000000000000001;stroke-dasharray:2.0,2.0;" x1="11" x2="124.6" y1="361.6219" y2="361.6219"/><text fill="#000000" font-family="sans-serif" font-size="5.2" lengthAdjust="spacing" textLength="13.2" x="15.8" y="359.7199">report</text><!--SRC=[ZPHDR-8m48Rl_XKMfrI2qzvGLQc2QhKIgwrmLpb6RZA0Is9dRGUM_VKx9awmanJrmeVzFZFpZksnmfP06VnfGEP0ruBlDQ_eWgwX1bdWueLkXJdIPydBYn669XiuGKc_FH1p5BBcJbufgVA3LXLGgni8Tio15-eiv9xkU6c049vRfUbl0vgWmefSr5nQEbjjVimeDnI_wUCZVZuznOAkW9MILgko1DtgtxOR1_IhPWYYa_m0-V6vuBNrrFhb5I6_CYQ4jfUKkwq8IkynVR-O5BiTw8XaTqWcBr5jR22UTiD0dqGEBR56mY_SCnCpwJrew6R0iZkiynEfsK1D2cxvEpSGvGa8NCM_26cebH5uOIvJVV1aTw3hNpyHALJ5XHp9jnX9s-yWGNECTsNQDMJQ7qCVxMggHNSmVY44YBl8TF5qlRPB2dyXRooiL5LnMIIpeY_oJQcISdU5_y7imRq2SS8pSHmX3kvZl3UYBBe83_sUk-PzWkuj97ch2mEY42CwEMA-amwq6ZNP3XzfLlFyoFUGVHWbargh3y2Tcjj34ASb2V4H5hw69Uqz2J2aW17GfyOdjkmiVvhbvPKuuU9ciV0NF5EDhHiRfK1r7nyl_P9MlCuqcAQq9Xc0ywZI82TR4sIdClf8OKeKtnonBnXY16LnyFWbRST940fi1LcoN4c31oSa-ZCjdsb-ZjmmmkAKlN3A3gQwvVg28OO06uI_72TCiD145Da1mwfHpSPX9qiE0-FG6bVifaHu12b1MNW4jmaurVmqR7uO_yfbvojuJQ9jrFYKi8b4Ds2Y-sdGVJz-bdJVJYN8TarP-aJ9y5BEXySwZpesdqmUlu4vtGjxQDw73MiB8SGN51Xo1VdTm4QdZusupXb-WgGrCAVjz_0-UN6NBUgV_YHLVqBza1mh_Tnpqn9Lrx4yASDv-ny0]--></g></svg>