<?xml version="1.0" encoding="us-ascii" standalone="no"?><svg xmlns="http://www.w3.org/2000/svg" xmlns:xlink="http://www.w3.org/1999/xlink" contentStyleType="text/css" height="503.1px" preserveAspectRatio="none" style="width:1048px;height:503px;background:#FFFFFF;" version="1.1" viewBox="0 0 1048 503" width="1048.5px" zoomAndPan="magnify"><defs/><g><text fill="#000000" font-family="sans-serif" font-size="12.6" font-weight="bold" lengthAdjust="spacing" textLength="353.7" x="346.725" y="24.9064">Sequence Diagram - Dependency Risk Analysis (Level 2)</text><rect fill="#FFFFFF" height="282.382" style="stroke:#181818;stroke-width:0.9;" width="9" x="155.25" y="133.0242"/><rect fill="#FFFFFF" height="231.0398" style="stroke:#181818;stroke-width:0.9;" width="9" x="279.45" y="158.6953"/><rect fill="#FFFFFF" height="25.6711" style="stroke:#181818;stroke-width:0.9;" width="9" x="659.25" y="184.3664"/><rect fill="#FFFFFF" height="77.0133" style="stroke:#181818;stroke-width:0.9;" width="9" x="758.25" y="235.7086"/><rect fill="#FFFFFF" height="25.6711" style="stroke:#181818;stroke-width:0.9;" width="9" x="895.05" y="261.3797"/><rect fill="#FFFFFF" height="25.6711" style="stroke:#181818;stroke-width:0.9;" width="9" x="994.05" y="338.393"/><line style="stroke:#181818;stroke-width:0.45;stroke-dasharray:5.0,5.0;" x1="19.8" x2="19.8" y1="105.5531" y2="431.6063"/><line style="stroke:#181818;stroke-width:0.45;stroke-dasharray:5.0,5.0;" x1="159.75" x2="159.75" y1="105.5531" y2="431.6063"/><line style="stroke:#181818;stroke-width:0.45;stroke-dasharray:5.0,5.0;" x1="283.95" x2="283.95" y1="105.5531" y2="431.6063"/><line style="stroke:#181818;stroke-width:0.45;stroke-dasharray:5.0,5.0;" x1="663.75" x2="663.75" y1="105.5531" y2="431.6063"/><line style="stroke:#181818;stroke-width:0.45;stroke-dasharray:5.0,5.0;" x1="762.75" x2="762.75" y1="105.5531" y2="431.6063"/><line style="stroke:#181818;stroke-width:0.45;stroke-dasharray:5.0,5.0;" x1="899.55" x2="899.55" y1="105.5531" y2="431.6063"/><line style="stroke:#181818;stroke-width:0.45;stroke-dasharray:5.0,5.0;" x1="998.55" x2="998.55" y1="105.5531" y2="431.6063"/><text fill="#000000" font-family="sans-serif" font-size="12.6" lengthAdjust="spacing" textLength="26.1" x="4.5" y="102.883">User</text><ellipse cx="20.25" cy="45.1266" fill="#E3E3E3" rx="7.2" ry="7.2" style="stroke:#181818;stroke-width:0.45;"/><path d="M20.25,52.3266 L20.25,76.6266 M8.55,59.5266 L31.95,59.5266 M20.25,76.6266 L8.55,90.1266 M20.25,76.6266 L31.95,90.1266 " fill="none" style="stroke:#181818;stroke-width:0.45;"/><text fill="#000000" font-family="sans-serif" font-size="12.6" lengthAdjust="spacing" textLength="26.1" x="4.5" y="442.1127">User</text><ellipse cx="20.25" cy="452.4328" fill="#E3E3E3" rx="7.2" ry="7.2" style="stroke:#181818;stroke-width:0.45;"/><path d="M20.25,459.6328 L20.25,483.9328 M8.55,466.8328 L31.95,466.8328 M20.25,483.9328 L8.55,497.4328 M20.25,483.9328 L31.95,497.4328 " fill="none" style="stroke:#181818;stroke-width:0.45;"/><rect fill="#E3E3E3" height="40.7531" rx="2.25" ry="2.25" style="stroke:#181818;stroke-width:0.45;" width="90" x="114.75" y="63.9"/><text fill="#000000" font-family="sans-serif" font-size="12.6" font-style="italic" lengthAdjust="spacing" textLength="77.4" x="121.05" y="81.6064">&#171;component&#187;</text><text fill="#000000" font-family="sans-serif" font-size="12.6" lengthAdjust="spacing" textLength="18.9" x="150.3" y="95.683">CLI</text><rect fill="#E3E3E3" height="40.7531" rx="2.25" ry="2.25" style="stroke:#181818;stroke-width:0.45;" width="90" x="114.75" y="430.7063"/><text fill="#000000" font-family="sans-serif" font-size="12.6" font-style="italic" lengthAdjust="spacing" textLength="77.4" x="121.05" y="448.4127">&#171;component&#187;</text><text fill="#000000" font-family="sans-serif" font-size="12.6" lengthAdjust="spacing" textLength="18.9" x="150.3" y="462.4893">CLI</text><rect fill="#E3E3E3" height="40.7531" rx="2.25" ry="2.25" style="stroke:#181818;stroke-width:0.45;" width="90" x="238.95" y="63.9"/><text fill="#000000" font-family="sans-serif" font-size="12.6" font-style="italic" lengthAdjust="spacing" textLength="77.4" x="245.25" y="81.6064">&#171;component&#187;</text><text fill="#000000" font-family="sans-serif" font-size="12.6" lengthAdjust="spacing" textLength="62.1" x="252.9" y="95.683">Controllers</text><rect fill="#E3E3E3" height="40.7531" rx="2.25" ry="2.25" style="stroke:#181818;stroke-width:0.45;" width="90" x="238.95" y="430.7063"/><text fill="#000000" font-family="sans-serif" font-size="12.6" font-style="italic" lengthAdjust="spacing" textLength="77.4" x="245.25" y="448.4127">&#171;component&#187;</text><text fill="#000000" font-family="sans-serif" font-size="12.6" lengthAdjust="spacing" textLength="62.1" x="252.9" y="462.4893">Controllers</text><rect fill="#E3E3E3" height="40.7531" rx="2.25" ry="2.25" style="stroke:#181818;stroke-width:0.45;" width="90" x="618.75" y="63.9"/><text fill="#000000" font-family="sans-serif" font-size="12.6" font-style="italic" lengthAdjust="spacing" textLength="77.4" x="625.05" y="81.6064">&#171;component&#187;</text><text fill="#000000" font-family="sans-serif" font-size="12.6" lengthAdjust="spacing" textLength="51.3" x="638.1" y="95.683">Adapters</text><rect fill="#E3E3E3" height="40.7531" rx="2.25" ry="2.25" style="stroke:#181818;stroke-width:0.45;" width="90" x="618.75" y="430.7063"/><text fill="#000000" font-family="sans-serif" font-size="12.6" font-style="italic" lengthAdjust="spacing" textLength="77.4" x="625.05" y="448.4127">&#171;component&#187;</text><text fill="#000000" font-family="sans-serif" font-size="12.6" lengthAdjust="spacing" textLength="51.3" x="638.1" y="462.4893">Adapters</text><rect fill="#E3E3E3" height="40.7531" rx="2.25" ry="2.25" style="stroke:#181818;stroke-width:0.45;" width="90" x="717.75" y="63.9"/><text fill="#000000" font-family="sans-serif" font-size="12.6" font-style="italic" lengthAdjust="spacing" textLength="77.4" x="724.05" y="81.6064">&#171;component&#187;</text><text fill="#000000" font-family="sans-serif" font-size="12.6" lengthAdjust="spacing" textLength="48.6" x="738.45" y="95.683">Services</text><rect fill="#E3E3E3" height="40.7531" rx="2.25" ry="2.25" style="stroke:#181818;stroke-width:0.45;" width="90" x="717.75" y="430.7063"/><text fill="#000000" font-family="sans-serif" font-size="12.6" font-style="italic" lengthAdjust="spacing" textLength="77.4" x="724.05" y="448.4127">&#171;component&#187;</text><text fill="#000000" font-family="sans-serif" font-size="12.6" lengthAdjust="spacing" textLength="48.6" x="738.45" y="462.4893">Services</text><rect fill="#E3E3E3" height="40.7531" rx="2.25" ry="2.25" style="stroke:#181818;stroke-width:0.45;" width="90" x="854.55" y="63.9"/><text fill="#000000" font-family="sans-serif" font-size="12.6" font-style="italic" lengthAdjust="spacing" textLength="77.4" x="860.85" y="81.6064">&#171;component&#187;</text><text fill="#000000" font-family="sans-serif" font-size="12.6" lengthAdjust="spacing" textLength="43.2" x="877.95" y="95.683">Domain</text><rect fill="#E3E3E3" height="40.7531" rx="2.25" ry="2.25" style="stroke:#181818;stroke-width:0.45;" width="90" x="854.55" y="430.7063"/><text fill="#000000" font-family="sans-serif" font-size="12.6" font-style="italic" lengthAdjust="spacing" textLength="77.4" x="860.85" y="448.4127">&#171;component&#187;</text><text fill="#000000" font-family="sans-serif" font-size="12.6" lengthAdjust="spacing" textLength="43.2" x="877.95" y="462.4893">Domain</text><rect fill="#E3E3E3" height="40.7531" rx="2.25" ry="2.25" style="stroke:#181818;stroke-width:0.45;" width="90" x="953.55" y="63.9"/><text fill="#000000" font-family="sans-serif" font-size="12.6" font-style="italic" lengthAdjust="spacing" textLength="77.4" x="959.85" y="81.6064">&#171;component&#187;</text><text fill="#000000" font-family="sans-serif" font-size="12.6" lengthAdjust="spacing" textLength="38.7" x="979.2" y="95.683">Report</text><rect fill="#E3E3E3" height="40.7531" rx="2.25" ry="2.25" style="stroke:#181818;stroke-width:0.45;" width="90" x="953.55" y="430.7063"/><text fill="#000000" font-family="sans-serif" font-size="12.6" font-style="italic" lengthAdjust="spacing" textLength="77.4" x="959.85" y="448.4127">&#171;component&#187;</text><text fill="#000000" font-family="sans-serif" font-size="12.6" lengthAdjust="spacing" textLength="38.7" x="979.2" y="462.4893">Report</text><rect fill="#FFFFFF" height="282.382" style="stroke:#181818;stroke-width:0.9;" width="9" x="155.25" y="133.0242"/><rect fill="#FFFFFF" height="231.0398" style="stroke:#181818;stroke-width:0.9;" width="9" x="279.45" y="158.6953"/><rect fill="#FFFFFF" height="25.6711" style="stroke:#181818;stroke-width:0.9;" width="9" x="659.25" y="184.3664"/><rect fill="#FFFFFF" height="77.0133" style="stroke:#181818;stroke-width:0.9;" width="9" x="758.25" y="235.7086"/><rect fill="#FFFFFF" height="25.6711" style="stroke:#181818;stroke-width:0.9;" width="9" x="895.05" y="261.3797"/><rect fill="#FFFFFF" height="25.6711" style="stroke:#181818;stroke-width:0.9;" width="9" x="994.05" y="338.393"/><polygon fill="#181818" points="144.45,129.4242,153.45,133.0242,144.45,136.6242,148.05,133.0242" style="stroke:#181818;stroke-width:0.9;"/><line style="stroke:#181818;stroke-width:0.9;" x1="20.25" x2="149.85" y1="133.0242" y2="133.0242"/><text fill="#000000" font-family="sans-serif" font-size="11.7" lengthAdjust="spacing" textLength="117.9" x="26.55" y="128.7448">run analysis command</text><polygon fill="#181818" points="268.65,155.0953,277.65,158.6953,268.65,162.2953,272.25,158.6953" style="stroke:#181818;stroke-width:0.9;"/><line style="stroke:#181818;stroke-width:0.9;" x1="164.25" x2="274.05" y1="158.6953" y2="158.6953"/><text fill="#000000" font-family="sans-serif" font-size="11.7" lengthAdjust="spacing" textLength="98.1" x="170.55" y="154.4159">command analysis</text><polygon fill="#181818" points="648.45,180.7664,657.45,184.3664,648.45,187.9664,652.05,184.3664" style="stroke:#181818;stroke-width:0.9;"/><line style="stroke:#181818;stroke-width:0.9;" x1="288.45" x2="653.85" y1="184.3664" y2="184.3664"/><text fill="#000000" font-family="sans-serif" font-size="11.7" lengthAdjust="spacing" textLength="353.7" x="294.75" y="180.087">execute adapters (depcheck, dirty-waters, dependencySniffer, snyk)</text><polygon fill="#181818" points="298.35,206.4375,289.35,210.0375,298.35,213.6375,294.75,210.0375" style="stroke:#181818;stroke-width:0.9;"/><line style="stroke:#181818;stroke-width:0.9;stroke-dasharray:2.0,2.0;" x1="292.95" x2="662.85" y1="210.0375" y2="210.0375"/><text fill="#000000" font-family="sans-serif" font-size="11.7" lengthAdjust="spacing" textLength="45" x="303.75" y="205.7581">adapters</text><polygon fill="#181818" points="747.45,232.1086,756.45,235.7086,747.45,239.3086,751.05,235.7086" style="stroke:#181818;stroke-width:0.9;"/><line style="stroke:#181818;stroke-width:0.9;" x1="288.45" x2="752.85" y1="235.7086" y2="235.7086"/><text fill="#000000" font-family="sans-serif" font-size="11.7" lengthAdjust="spacing" textLength="207" x="294.75" y="231.4292">filter the information that the tool provide</text><polygon fill="#181818" points="884.25,257.7797,893.25,261.3797,884.25,264.9797,887.85,261.3797" style="stroke:#181818;stroke-width:0.9;"/><line style="stroke:#181818;stroke-width:0.9;" x1="767.25" x2="889.65" y1="261.3797" y2="261.3797"/><text fill="#000000" font-family="sans-serif" font-size="11.7" lengthAdjust="spacing" textLength="110.7" x="773.55" y="257.1003">process domain logic</text><polygon fill="#181818" points="777.15,283.4508,768.15,287.0508,777.15,290.6508,773.55,287.0508" style="stroke:#181818;stroke-width:0.9;"/><line style="stroke:#181818;stroke-width:0.9;stroke-dasharray:2.0,2.0;" x1="771.75" x2="898.65" y1="287.0508" y2="287.0508"/><text fill="#000000" font-family="sans-serif" font-size="11.7" lengthAdjust="spacing" textLength="81.9" x="782.55" y="282.7714">Analysis Result</text><polygon fill="#181818" points="298.35,309.1219,289.35,312.7219,298.35,316.3219,294.75,312.7219" style="stroke:#181818;stroke-width:0.9;"/><line style="stroke:#181818;stroke-width:0.9;stroke-dasharray:2.0,2.0;" x1="292.95" x2="761.85" y1="312.7219" y2="312.7219"/><text fill="#000000" font-family="sans-serif" font-size="11.7" lengthAdjust="spacing" textLength="130.5" x="303.75" y="308.4425">information for the Report</text><polygon fill="#181818" points="983.25,334.793,992.25,338.393,983.25,341.993,986.85,338.393" style="stroke:#181818;stroke-width:0.9;"/><line style="stroke:#181818;stroke-width:0.9;" x1="288.45" x2="988.65" y1="338.393" y2="338.393"/><text fill="#000000" font-family="sans-serif" font-size="11.7" lengthAdjust="spacing" textLength="78.3" x="294.75" y="334.1136">generate report</text><polygon fill="#181818" points="298.35,360.4641,289.35,364.0641,298.35,367.6641,294.75,364.0641" style="stroke:#181818;stroke-width:0.9;"/><line style="stroke:#181818;stroke-width:0.9;stroke-dasharray:2.0,2.0;" x1="292.95" x2="997.65" y1="364.0641" y2="364.0641"/><text fill="#000000" font-family="sans-serif" font-size="11.7" lengthAdjust="spacing" textLength="81.9" x="303.75" y="359.7847">formatted report</text><polygon fill="#181818" points="174.15,386.1352,165.15,389.7352,174.15,393.3352,170.55,389.7352" style="stroke:#181818;stroke-width:0.9;"/><line style="stroke:#181818;stroke-width:0.9;stroke-dasharray:2.0,2.0;" x1="168.75" x2="283.05" y1="389.7352" y2="389.7352"/><text fill="#000000" font-family="sans-serif" font-size="11.7" lengthAdjust="spacing" textLength="47.7" x="179.55" y="385.4558">response</text><polygon fill="#181818" points="30.15,411.8063,21.15,415.4063,30.15,419.0063,26.55,415.4063" style="stroke:#181818;stroke-width:0.9;"/><line style="stroke:#181818;stroke-width:0.9;stroke-dasharray:2.0,2.0;" x1="24.75" x2="158.85" y1="415.4063" y2="415.4063"/><text fill="#000000" font-family="sans-serif" font-size="11.7" lengthAdjust="spacing" textLength="70.2" x="35.55" y="411.1269">display report</text><!--SRC=[VPF1Rjim38RlUWgYfnQeBpiQHO1YkGn8CS3fTYSaEX4YKwuaf_FRZx8ZsoYAd6pHty-V8kbaaoCuqiT0h0ds5ay1EwXWJpsnaU08ZOqNU6LqOxGH7Wzq9GS_dbIyMEunuvrdhy_1TmGf3BJv4ize_AVb4xJe8Yc5Ela0Vo859KIoslR82Hv-7duz04QG9xoyQD_rdedJRlS5yvo2Tuv2dF7tvd2FVpNOfmANmpt1aSBLQfe5n-RlFNRlExGyaVlVR_V8XdeVqaJEhrzWbHi2rMwwVWrXOC3ISE4wP9CxPw-OA3DAPJ3p-VvrOHRH1XP0w8m9ldIW1lf7UX00I-ZHKA_Ff2_FO6n8O_M9EIwdPHMERDkMmZD47YzFgqb9gzHYKAt55GTbw1j5AIttkeRMEWb3EXDORdteC5dFSiOq1PFt3lhWhzRGwYzQfN82oPCdKMT4XXZ1J2C2vqzMhxmmAdFLuhkiTqDnS6bRQeRdvEkLjhN9srJQFDYjSYghtEysznfEn1Jovp0B5loMGDt8ZTribiWKpSQag6QVTOKeodR97xT1RxkGDqUuQULgcNNi7OxVPCvxzXy0]--></g></svg>